# xmcd CD database file
#
# Track frame offsets:
#	150
#	4572
#	9364
#	16154
#	22108
#	26556
#	30550
#	35993
#	39899
#	45402
#	53508
#	57670
#	64487
#	70019
#	77218
#	84193
#	89123
#	93758
#	98832
#	103370
#	107850
#	113924
#	123675
#	130343
#	136292
#	143634
#	152952
#	159003
#	169084
#	176766
#	183231
#	191678
#	198622
#	206573
#	210243
#	216535
#	223818
#	229214
#	234488
#	240499
#	244866
#	253764
#	259905
#	266250
#	273124
#	278154
#	286168
#	291855
#	297646
#	305162
#	312961
#	318990
#	323326
#	328335
#
# Disc length: 4437 seconds
#
# Revision: 0
# Processed by: cddbd v1.5.1PL2 Copyright (c) Steve Scherf et al.
# Submitted via: CDex 1.51
#
DISCID=1f115336
DTITLE=Simon Heather - Sacred Chants
DYEAR=2005
DGENRE=New Age
TTITLE0=Bismillah
TTITLE1=Hiney Mah Tov
TTITLE2=Jamil Allah
TTITLE3=Neesa Neesa
TTITLE4=Dance Lightly
TTITLE5=Evening Breeze
TTITLE6=Gaudeamus
TTITLE7=Jubilate
TTITLE8=Tall Trees
TTITLE9=Infinite Sun
TTITLE10=We are the flow
TTITLE11=Om Namaha Shivaya
TTITLE12=Hey Yungawa
TTITLE13=Om Kali Ma
TTITLE14=Sura of Love
TTITLE15=Dear Lord
TTITLE16=Oh Great Spirit
TTITLE17=We are the power
TTITLE18=Earth My Body
TTITLE19=The Return
TTITLE20=Four Archangels
TTITLE21=I am a Circle
TTITLE22=Greenham Common Song
TTITLE23=Yani-Yoni
TTITLE24=I Circle Around
TTITLE25=Om Tare Tutare
TTITLE26=May the Great Spirit
TTITLE27=We all come from
TTITLE28=Mother I feel you
TTITLE29=Blood of the Ancients
TTITLE30=The River
TTITLE31=May the Road Rise
TTITLE32=Jai Hanuman
TTITLE33=Ama Ibu Oh Ee Yey
TTITLE34=Om Mani Peme Hung
TTITLE35=Kalama
TTITLE36=As the Swan Sings
TTITLE37=We are Angels
TTITLE38=Isis, Astarte, Diana
TTITLE39=May the Long Time Sun
TTITLE40=The Earth is our Mother
TTITLE41=Anceint Mother
TTITLE42=Hi Ya Wey
TTITLE43=Hey Ya Na Na
TTITLE44=gate Gate
TTITLE45=Radhe Bol
TTITLE46=Shalom Aleichem
TTITLE47=Walking Hand in Hand
TTITLE48=Abwoon D'Bahsmaya
TTITLE49=We are one in Harmony
TTITLE50=Yemaya
TTITLE51=Dona Nobis Pace
TTITLE52=So Hum
TTITLE53=Loka Samasta
EXTD=YEAR: 2005
EXTT0=
EXTT1=
EXTT2=
EXTT3=
EXTT4=
EXTT5=
EXTT6=
EXTT7=
EXTT8=
EXTT9=
EXTT10=
EXTT11=
EXTT12=
EXTT13=
EXTT14=
EXTT15=
EXTT16=
EXTT17=
EXTT18=
EXTT19=
EXTT20=
EXTT21=
EXTT22=
EXTT23=
EXTT24=
EXTT25=
EXTT26=
EXTT27=
EXTT28=
EXTT29=
EXTT30=
EXTT31=
EXTT32=
EXTT33=
EXTT34=
EXTT35=
EXTT36=
EXTT37=
EXTT38=
EXTT39=
EXTT40=
EXTT41=
EXTT42=
EXTT43=
EXTT44=
EXTT45=
EXTT46=
EXTT47=
EXTT48=
EXTT49=
EXTT50=
EXTT51=
EXTT52=
EXTT53=
PLAYORDER=
